#N canvas 1345 118 1124 1168 12;
#X obj 72 258 timeDisplay;
#X floatatom 135 157 5 0 0 0 - - -;
#X obj 17 257 dac~;
#X obj 294 -23 vsl 15 128 -10 10 0 0 empty empty empty 0 -9 0 10 -262144
-1 -1 1100 1;
#X obj 58 129 noise~;
#X obj 12 207 print~;
#X obj 12 184 bng 15 250 50 0 empty empty empty 17 7 0 10 -262144 -1
-1;
#X msg 179 120 -1;
#X msg 135 121 0;
#X obj 72 188 tilt~ 39;
#X connect 1 0 9 1;
#X connect 3 0 1 0;
#X connect 4 0 9 0;
#X connect 6 0 5 0;
#X connect 7 0 1 0;
#X connect 8 0 1 0;
#X connect 9 0 2 0;
#X connect 9 0 2 1;
#X connect 9 0 5 0;
#X connect 9 0 0 0;
